<?xml version="1.0"?>
<svg xmlns="http://www.w3.org/2000/svg" xmlns:xlink="http://www.w3.org/1999/xlink" xmlns:svgjs="http://svgjs.com/svgjs" version="1.1" width="512" height="512" x="0" y="0" viewBox="0 0 478 478" style="enable-background:new 0 0 512 512" xml:space="preserve" class=""><g>
<g xmlns="http://www.w3.org/2000/svg">
	<g>
		<path d="M452.7,303.805l-38.4-17.4l-33.8-54c-9.8-15.8-27.1-25.3-45.7-25.3H191.1c-16.8,0.1-32.6,7.9-42.9,21.3l-43.5,57.1    l-73,19.9c-18.7,5.1-31.6,22-31.7,41.4v27.8c0,23.7,19.5,42.5,43.2,42.5h6c7.6,29.1,37.4,46.4,66.5,38.8c19-5,33.8-19.8,38.8-38.8    H318c7.6,29.1,37.4,46.4,66.5,38.8c19-5,33.8-19.8,38.8-38.8h11.5c23.7,0,43.2-18.8,43.2-42.5v-31.7    C477.9,326.005,468,310.805,452.7,303.805z M101.9,438.105c-19,0-34.4-15.4-34.4-34.4s15.4-34.4,34.4-34.4s34.4,15.4,34.4,34.4    S120.9,438.105,101.9,438.105z M370.6,438.105c-19,0-34.4-15.4-34.4-34.4s15.4-34.4,34.4-34.4s34.4,15.4,34.4,34.4    S389.6,438.105,370.6,438.105z M458,374.605c0,12.6-10.6,22.5-23.2,22.5h-10.1c-3.4-29.9-30.4-51.3-60.2-47.9    c-25.2,2.9-45.1,22.7-47.9,47.9H155.9c-3.4-29.9-30.4-51.3-60.2-47.9c-25.2,2.9-45.1,22.7-47.9,47.9h-4.6    c-12.6,0-23.2-9.8-23.2-22.5v-27.8c0.1-10.3,7-19.4,17-22.1l76.2-20.8c2.1-0.6,4-1.8,5.4-3.6l45.5-59.8c6.4-8.4,16.4-13.4,27-13.4    h143.7c11.7,0,22.6,6,28.7,16l35.4,56.5c1,1.7,2.5,3,4.3,3.8l41.2,18.7c8.2,3.7,13.5,11.9,13.6,20.9V374.605z" fill="#9da0b3" data-original="#000000" style=""/>
	</g>
</g>
<g xmlns="http://www.w3.org/2000/svg">
	<g>
		<path d="M409.2,80.805c5.5,0.5,10.3-3.6,10.8-9.1c0.1-1.2,0-2.4-0.4-3.6c-4-14.3-12.8-26.8-24.9-35.4    c-11.5-8.1-25.6-12.2-40.9-12.4c-29.2,0-52.9,14.8-63.5,40.8H184.5c-12.7-22-36.2-35.5-60.5-35.5c-15.7,0-30,4.3-41.2,12.6    c-12.1,9-20.5,22.3-24.2,38.6c-1.2,5.4,2.1,10.7,7.5,11.9c1,0.2,2,0.3,3,0.2l34.8-2.7c2.9,6.1,2.9,13.1,0,19.2l-35.1-2.8    c-5.5-0.5-10.3,3.6-10.8,9.1c-0.1,1.2,0,2.4,0.4,3.6c4,14.3,12.8,26.8,25,35.4c12.1,8.3,26.4,12.8,41.1,12.6    c29.2,0,52.9-15.3,63.5-40.3h105.3c11,18,32.7,35.1,60.3,34.7c15.6,0,29.9-4.5,41.2-12.8c12.1-8.9,20.7-22.1,24.7-38.2    c1.3-5.4-1.9-10.8-7.3-12.2c-1-0.3-2.1-0.4-3.2-0.3l-34.8,2.9c-2.9-6.1-2.9-13.1,0-19.2L409.2,80.805z M361,113.805    c2.1,2.6,5.3,4,8.6,3.8l24.9-1.9c-8.1,14.1-22.6,22-41.2,22c-21.5,0.3-38.5-14.8-45.1-29c-1.7-3.5-5.2-5.6-9.1-5.5H181    c-4.4-0.1-8.3,2.7-9.6,6.9c-6.2,20.6-24.2,33.3-46.9,33.3c-17.1,0-31.4-7.1-40-19.2l23.8,1.9c3.4,0.3,6.7-1.2,8.8-3.9l0.2-0.3    c11.6-15.5,11.5-36.8-0.3-52.1c-2.1-2.7-5.3-4.1-8.7-3.9l-25.3,2c7.9-14.5,22.2-22.5,41-22.5c18.5,0,37.2,12.4,45.5,29.8    c1.6,3.5,5.1,5.9,9,6h118.7c4.5-0.1,8.3-3.1,9.6-7.4c6.2-20.6,24.2-33.6,46.8-33.6c17,0.2,31.3,7.2,39.9,19.3l-23.8-2    c-3.4-0.3-6.7,1.2-8.8,3.9l-0.2,0.3C349,77.105,349.1,98.505,361,113.805z" fill="#9da0b3" data-original="#000000" style=""/>
	</g>
</g>
<g xmlns="http://www.w3.org/2000/svg">
</g>
<g xmlns="http://www.w3.org/2000/svg">
</g>
<g xmlns="http://www.w3.org/2000/svg">
</g>
<g xmlns="http://www.w3.org/2000/svg">
</g>
<g xmlns="http://www.w3.org/2000/svg">
</g>
<g xmlns="http://www.w3.org/2000/svg">
</g>
<g xmlns="http://www.w3.org/2000/svg">
</g>
<g xmlns="http://www.w3.org/2000/svg">
</g>
<g xmlns="http://www.w3.org/2000/svg">
</g>
<g xmlns="http://www.w3.org/2000/svg">
</g>
<g xmlns="http://www.w3.org/2000/svg">
</g>
<g xmlns="http://www.w3.org/2000/svg">
</g>
<g xmlns="http://www.w3.org/2000/svg">
</g>
<g xmlns="http://www.w3.org/2000/svg">
</g>
<g xmlns="http://www.w3.org/2000/svg">
</g>
</g></svg>
