<?xml version="1.0"?>
<svg xmlns="http://www.w3.org/2000/svg" xmlns:xlink="http://www.w3.org/1999/xlink" xmlns:svgjs="http://svgjs.com/svgjs" version="1.1" width="512" height="512" x="0" y="0" viewBox="0 0 609.623 609.623" style="enable-background:new 0 0 512 512" xml:space="preserve" class=""><g><g xmlns="http://www.w3.org/2000/svg"><g id="Page-1_12_"><g id="_x30_13---Car-Service"><path id="Shape_35_" d="m415.041 386.094h-220.48c-9.198-.009-17.414 5.75-20.544 14.399s-.501 18.332 6.573 24.211l32.93 27.433c3.925 3.28 8.876 5.078 13.991 5.08h154.58c5.112-.001 10.06-1.8 13.981-5.08l32.94-27.433c7.074-5.879 9.703-15.562 6.573-24.211s-11.346-14.408-20.544-14.399zm1.016 23.004-32.94 27.433c-.286.233-.647.355-1.016.345h-154.57c-.371.011-.733-.116-1.016-.356l-32.94-27.433c-.544-.375-.738-1.088-.457-1.687.158-.644.762-1.075 1.422-1.016h220.48c.66-.059 1.264.372 1.422 1.016.29.596.105 1.315-.437 1.697h.052z" fill="#9da0b3" data-original="#000000" style="" class=""/><path id="Shape_34_" d="m487.993 391.175-33.042 27.433c-7.099 5.868-9.745 15.564-6.611 24.224 3.134 8.661 11.371 14.418 20.581 14.385h79.739c11.223 0 20.321-9.098 20.321-20.321v-30.481c0-11.223-9.098-20.321-20.321-20.321h-46.687c-5.109.015-10.053 1.811-13.98 5.081zm60.668 15.24v30.481h-79.739c-.664.065-1.274-.368-1.433-1.016-.279-.583-.083-1.282.457-1.636l33.052-27.494c.282-.242.645-.368 1.016-.356z" fill="#9da0b3" data-original="#000000" style="" class=""/><path id="Shape_33_" d="m121.63 391.175c-3.911-3.262-8.837-5.058-13.93-5.08h-46.738c-11.223 0-20.321 9.098-20.321 20.321v30.481c0 11.223 9.098 20.321 20.321 20.321h79.718c9.206.025 17.437-5.731 20.571-14.387s.497-18.348-6.59-24.222zm20.504 44.705c-.159.648-.769 1.081-1.433 1.016h-79.739v-30.481h46.738c.371-.013.734.114 1.016.356l33.062 27.494c.49.384.639 1.061.356 1.615z" fill="#9da0b3" data-original="#000000" style="" class=""/><g clip-rule="evenodd" fill-rule="evenodd"><path id="Path_56_" d="m132.085 487.698h-71.123c-5.611 0-10.16 4.549-10.16 10.16s4.549 10.16 10.16 10.16h71.123c5.611 0 10.16-4.549 10.16-10.16s-4.549-10.16-10.16-10.16z" fill="#9da0b3" data-original="#000000" style="" class=""/><path id="Path_55_" d="m548.661 487.698h-71.123c-5.611 0-10.16 4.549-10.16 10.16s4.549 10.16 10.16 10.16h71.123c5.611 0 10.16-4.549 10.16-10.16s-4.549-10.16-10.16-10.16z" fill="#9da0b3" data-original="#000000" style="" class=""/><path id="Path_54_" d="m396.255 487.698h-182.887c-5.611 0-10.16 4.549-10.16 10.16s4.549 10.16 10.16 10.16h182.887c5.611 0 10.16-4.549 10.16-10.16s-4.549-10.16-10.16-10.16z" fill="#9da0b3" data-original="#000000" style="" class=""/></g><path id="Shape_32_" d="m609.623 294.651c0-16.834-13.647-30.481-30.481-30.481h-20.321c-8.858.033-17.258 3.938-22.993 10.689l-19.071-57.142c-4.704-14.156-15.404-25.522-29.252-31.07 0-1.27.193-2.489.193-3.759 0-101.007-81.881-182.888-182.887-182.888s-182.886 81.881-182.886 182.887c0 1.27.163 2.489.193 3.759-13.837 5.538-24.534 16.889-29.242 31.03l-19.081 57.183c-5.735-6.751-14.135-10.656-22.993-10.689h-20.321c-16.834 0-30.481 13.647-30.481 30.481s13.647 30.481 30.481 30.481h16.114l-37.593 37.594c-5.778 5.717-9.02 13.513-9.002 21.641v133.812c.053 12.871 8.186 24.321 20.321 28.612v32.351c0 16.834 13.647 30.481 30.481 30.481h71.123c16.834 0 30.481-13.647 30.481-30.481v-30.481h304.811v30.481c0 16.834 13.647 30.481 30.481 30.481h71.123c16.834 0 30.481-13.647 30.481-30.481v-32.351c12.135-4.29 20.267-15.741 20.321-28.612v-133.812c.018-8.113-3.213-15.896-8.972-21.611l-37.593-37.593h16.084c8.089 0 15.847-3.216 21.564-8.938 5.717-5.724 8.925-13.485 8.917-21.574zm-112.161-70.543 26.935 80.704h-83.661c24.182-26.851 39.823-60.294 44.929-96.066 5.514 3.685 9.66 9.084 11.797 15.362zm-192.651-203.787c89.783 0 162.566 72.783 162.566 162.566s-72.783 162.566-162.566 162.566-162.566-72.783-162.566-162.566c.107-89.739 72.828-162.46 162.566-162.566zm-192.64 203.736c2.142-6.259 6.283-11.64 11.786-15.312 5.107 35.773 20.747 69.215 44.929 96.066h-83.661zm-81.69 80.754c-5.611 0-10.16-4.549-10.16-10.16s4.549-10.16 10.16-10.16h20.321c5.611 0 10.16 4.549 10.16 10.16v10.16zm101.604 274.331c0 5.611-4.549 10.16-10.16 10.16h-71.123c-5.611 0-10.16-4.549-10.16-10.16v-30.481h91.443zm436.896 0c0 5.611-4.549 10.16-10.16 10.16h-71.123c-5.611 0-10.16-4.549-10.16-10.16v-30.481h91.443zm17.273-202.019c1.947 1.908 3.045 4.518 3.048 7.244v133.812c0 5.611-4.549 10.16-10.16 10.16h-548.661c-5.611 0-10.16-4.549-10.16-10.16v-133.812c.003-2.726 1.101-5.336 3.048-7.244l51.96-51.991h114.812c66.866 54.189 162.535 54.189 229.401 0h114.812zm-37.593-72.312v-10.16c0-5.611 4.549-10.16 10.16-10.16h20.321c5.611 0 10.16 4.549 10.16 10.16s-4.549 10.16-10.16 10.16z" fill="#9da0b3" data-original="#000000" style="" class=""/><path id="Shape_31_" d="m214.384 177.644c5.389.009 10.56-2.13 14.367-5.944l5.334-5.334 22.109 22.109-5.08 5.08c-28.871-3.136-54.838 17.674-58.067 46.535-.3 6.46 2.882 12.587 8.339 16.056 5.458 3.47 12.355 3.752 18.078.739 6.635-3.536 9.144-1.016 10.75.701 1.605 1.717 4.145 4.064.671 10.526-3.024 5.554-2.903 12.288.317 17.73 3.221 5.442 9.067 8.788 15.39 8.809h.61c8.605-.513 16.886-3.462 23.877-8.504 16.069-11.063 24.838-29.999 22.881-49.41l5.263-5.273 57.233 57.233c7.958 7.953 20.856 7.953 28.815 0l14.316-14.367c7.906-7.931 7.906-20.762 0-28.693l-57.233-57.223 16.064-16.074c15.419 1.945 30.869-3.369 41.83-14.387 9.113-8.372 14.788-19.834 15.921-32.158v-.071c.311-6.464-2.869-12.599-8.329-16.073-5.461-3.474-12.364-3.753-18.088-.733-6.645 3.546-9.215.945-10.8-.65s-4.176-4.186-.539-10.719c2.987-5.702 2.72-12.562-.701-18.014-3.259-5.497-9.295-8.736-15.677-8.413-8.609.515-16.894 3.468-23.887 8.514-16.15 11.121-24.907 30.198-22.81 49.694l-16.013 16.023-22.109-22.109 9.022-9.022c5.174-5.177 7.164-12.736 5.211-19.789-1.954-7.054-7.55-12.511-14.65-14.288l-34.494-8.626c-6.927-1.713-14.245.313-19.305 5.344l-44.533 44.543c-3.813 3.811-5.955 8.981-5.955 14.372s2.142 10.561 5.955 14.372l21.56 21.56c3.805 3.811 8.972 5.947 14.357 5.934zm170.796 82.299-14.326 14.387-57.254-57.203 14.377-14.377zm-51.737-119.963c2.507-2.505 3.528-6.136 2.693-9.581-2.754-13.05 2.603-26.477 13.584-34.047 2.668-1.907 5.644-3.341 8.799-4.237-4.298 10.476-1.876 22.508 6.139 30.506s20.053 10.393 30.519 6.072c-1.812 5.68-5.039 10.806-9.378 14.895-7.338 7.502-18.128 10.506-28.286 7.874-3.471-.881-7.15.13-9.683 2.662l-71.935 71.936c-2.483 2.482-3.509 6.07-2.713 9.49 2.621 12.999-2.754 26.31-13.666 33.844-2.679 1.907-5.666 3.34-8.829 4.237 4.622-10.404 2.179-22.592-6.096-30.41-4.984-5.376-11.974-8.444-19.305-8.474-3.875.033-7.708.799-11.298 2.256 1.816-5.681 5.046-10.807 9.388-14.895 7.438-7.553 18.373-10.505 28.601-7.722 3.485.903 7.188-.106 9.734-2.652zm-48.485 19.741-14.387 14.387-22.109-22.109 14.387-14.387zm-47.581-68.491 34.545 8.586-57.538 57.518-21.56-21.55z" fill="#9da0b3" data-original="#000000" style="" class=""/></g></g></g></g></svg>
