<svg width="24" height="24" viewBox="0 0 24 24" fill="none" xmlns="http://www.w3.org/2000/svg">
<path d="M18.5173 8.84922C17.4438 6.01562 14.7087 4 11.5048 4C8.30085 4 5.56569 6.01328 4.49225 8.84687C2.47429 9.37891 0.98835 11.2234 1.00007 13.4125C1.01413 15.8594 2.91257 17.8492 5.30319 18.0625C5.41335 18.0719 5.5071 17.9852 5.5071 17.875V16.4594C5.5071 16.3656 5.43679 16.2859 5.34304 16.2742C4.71022 16.1945 4.11257 15.918 3.65319 15.4656C3.09069 14.9148 2.78132 14.1742 2.78132 13.3891C2.78132 12.7328 2.9946 12.1141 3.39538 11.5984C3.78679 11.0969 4.33757 10.7336 4.9446 10.5742L5.83288 10.3398L6.15866 9.47969C6.36022 8.94531 6.64147 8.44375 6.99538 7.99141C7.3446 7.54141 7.75944 7.14766 8.2235 6.81953C9.18678 6.14219 10.3212 5.78359 11.5048 5.78359C12.6883 5.78359 13.8227 6.14219 14.786 6.82187C15.2524 7.15 15.6649 7.54375 16.0141 7.99375C16.368 8.44609 16.6493 8.94766 16.8508 9.48203L17.1743 10.3398L18.0602 10.5742C19.3305 10.9117 20.2188 12.0672 20.2188 13.3867C20.2188 14.1742 19.9094 14.9125 19.3469 15.4633C18.8899 15.9133 18.2946 16.1922 17.6618 16.2719C17.568 16.2836 17.5001 16.3633 17.5001 16.457V17.875C17.5001 17.9852 17.5962 18.0719 17.7063 18.0625C20.0899 17.8469 21.9837 15.8594 22.0001 13.4172C22.0141 11.2281 20.5305 9.38359 18.5173 8.84922Z" fill="#9DA0B3"/>
<path d="M8.33364 15.5875C8.37583 14.8024 8.70161 14.0711 9.25942 13.511C9.85474 12.9133 10.6657 12.5782 11.5094 12.5782C12.3579 12.5782 13.1571 12.9086 13.7594 13.511C13.7923 13.5438 13.8227 13.5766 13.8555 13.6117L13.2696 14.0711C13.2417 14.0927 13.2204 14.1218 13.2083 14.1549C13.1961 14.188 13.1936 14.2239 13.2009 14.2584C13.2083 14.293 13.2252 14.3247 13.2498 14.35C13.2744 14.3754 13.3056 14.3932 13.3399 14.4016L15.6415 14.9641C15.7587 14.9922 15.8735 14.9031 15.8735 14.7836L15.8852 12.4094C15.8852 12.2524 15.7071 12.1633 15.5829 12.2618L15.0391 12.6883C14.1813 11.7039 12.9204 11.0805 11.5118 11.0805C8.99458 11.0805 6.94145 13.075 6.83832 15.5735C6.83363 15.6789 6.91801 15.768 7.02582 15.768H8.14848C8.24692 15.7656 8.32895 15.6883 8.33364 15.5875ZM15.9766 15.7656H14.854C14.7555 15.7656 14.6735 15.843 14.6665 15.9438C14.6243 16.7289 14.2985 17.4602 13.7407 18.0203C13.1454 18.618 12.3344 18.9531 11.4907 18.9531C10.6422 18.9531 9.84302 18.6227 9.24067 18.0203C9.20786 17.9875 9.17739 17.9547 9.14458 17.9195L9.73052 17.4602C9.75843 17.4386 9.77969 17.4095 9.79184 17.3764C9.80398 17.3433 9.80653 17.3074 9.79919 17.2728C9.79184 17.2383 9.7749 17.2066 9.75032 17.1813C9.72573 17.1559 9.6945 17.1381 9.66021 17.1297L7.35863 16.5672C7.24145 16.5391 7.1266 16.6281 7.1266 16.7477L7.11723 19.1242C7.11723 19.2813 7.29535 19.3703 7.41957 19.2719L7.96332 18.8453C8.82114 19.8297 10.0821 20.4531 11.4907 20.4531C14.0079 20.4531 16.061 18.4586 16.1641 15.9602C16.1688 15.8547 16.0844 15.7656 15.9766 15.7656Z" fill="#9DA0B3"/>
</svg>
