<svg width="24" height="24" viewBox="0 0 24 24" fill="none" xmlns="http://www.w3.org/2000/svg">
<path d="M22 3H2V9H3V20C3 20.5304 3.21071 21.0391 3.58579 21.4142C3.96086 21.7893 4.46957 22 5 22H19C19.5304 22 20.0391 21.7893 20.4142 21.4142C20.7893 21.0391 21 20.5304 21 20V9H22V3ZM4 5H20V7H4V5ZM19 20H5V9H19V20ZM7 16.45C7 15.9673 7.19175 15.5044 7.53307 15.1631C7.87438 14.8217 8.33731 14.63 8.82 14.63H8.91C8.575 13.04 9.59 11.482 11.18 11.147C11.5822 11.062 11.9977 11.0623 12.3998 11.148C12.8018 11.2337 13.1814 11.4027 13.514 11.6443C13.8467 11.8859 14.1249 12.1945 14.3307 12.5504C14.5365 12.9062 14.6654 13.3012 14.709 13.71C15.2227 13.699 15.7249 13.8627 16.1334 14.1742C16.542 14.4858 16.8327 14.9268 16.958 15.425C17.0833 15.9233 17.0358 16.4494 16.8233 16.9171C16.6108 17.3849 16.2458 17.7667 15.788 18H7.87C7.33 17.67 7 17.083 7 16.45Z" fill="#9DA0B3"/>
</svg>
