<svg width="314" height="242" viewBox="0 0 314 242" fill="none" xmlns="http://www.w3.org/2000/svg">
<path fill-rule="evenodd" clip-rule="evenodd" d="M3.17597 125.535C12.6287 94.3308 56.8069 87.665 81.193 64.5315C100.235 46.4673 104.867 16.3369 129.52 5.68143C155.211 -5.42276 184.701 2.21103 212.372 7.83308C243.137 14.0838 279.328 16.1699 297.863 39.8847C316.4 63.603 303.155 96.2176 304.365 125.535C305.642 156.462 324.891 191.226 305.136 216.109C285.376 241 245.14 240.893 211.93 241.97C185.543 242.826 163.968 225.069 137.839 221.536C102.939 216.818 62.7072 237.974 34.7007 218.008C6.43955 197.861 -6.48938 157.442 3.17597 125.535Z" fill="#3868FE" fill-opacity="0.1"/>
<path d="M267.361 159.706H277.979C279.518 159.706 280.903 160.819 280.903 162.35V173.902C280.903 175.294 279.672 176.546 277.979 176.546H267.361C265.822 176.546 264.437 175.433 264.437 173.902V162.35C264.437 160.959 265.822 159.706 267.361 159.706Z" fill="#416EAA"/>
<path d="M272.131 142.866H282.903C284.442 142.866 285.673 143.979 285.673 145.371V157.062C285.673 158.454 284.442 159.567 282.903 159.567H272.131C270.592 159.567 269.361 158.454 269.361 157.062V145.371C269.361 143.979 270.592 142.866 272.131 142.866Z" fill="#30AECF"/>
<path d="M277.979 159.706H287.366C289.367 159.706 290.906 161.098 290.906 162.907V173.345C290.906 175.155 289.367 176.546 287.366 176.546H277.979C275.978 176.546 274.44 175.155 274.44 173.345V162.907C274.44 161.237 276.132 159.706 277.979 159.706Z" fill="#19478C"/>
<path d="M238.122 141.057C238.122 141.057 238.737 140.639 239.045 141.335C239.353 142.031 239.199 143.979 239.045 143.84C238.891 143.701 237.968 143.005 237.968 142.448C237.814 142.17 238.122 141.057 238.122 141.057Z" fill="#C66040"/>
<path d="M249.048 176.407C249.048 176.407 249.817 177.103 250.741 176.825C251.664 176.546 251.202 176.825 251.202 176.825L251.356 178.077H246.124C246.124 178.216 247.047 177.103 249.048 176.407Z" fill="#191B30"/>
<path d="M258.281 174.319C258.281 174.319 258.589 177.66 259.82 177.799C261.051 177.938 261.974 177.242 261.359 175.99C260.897 174.737 259.974 173.763 259.974 173.763C259.974 173.763 259.512 174.876 258.281 174.319Z" fill="#191B30"/>
<path d="M259.358 172.51L252.587 154.139C252.587 154.139 248.278 155.113 247.047 154.974C245.816 154.835 245.816 154.835 245.816 154.835L249.51 175.572L251.202 175.711L250.433 159.567L258.127 173.345L259.358 172.51Z" fill="#3B4B75"/>
<path d="M248.124 141.335C248.124 141.335 249.202 142.448 250.895 142.17C252.433 141.892 252.895 141.335 252.895 141.335C252.895 141.335 255.203 140.639 256.435 144.675C257.666 148.711 257.358 151.495 254.742 153.304C253.511 154.139 252.28 154.557 251.202 154.974C249.971 155.252 248.74 155.392 247.663 155.113L245.97 154.835L248.124 141.335Z" fill="#3A69FF"/>
<path d="M252.126 138.551L252.895 137.021L254.126 137.438L254.28 138.551C254.28 138.551 254.434 139.665 253.664 139.943C252.895 140.222 251.818 139.108 252.126 138.551Z" fill="#15100E"/>
<path d="M246.124 146.206H241.661C239.968 146.206 238.583 144.954 238.583 143.423V142.866C238.583 141.335 239.968 140.082 241.661 140.082H246.124C247.817 140.082 249.202 141.335 249.202 142.866V143.423C249.356 144.954 247.971 146.206 246.124 146.206Z" fill="#3382BA"/>
<path d="M243.662 145.232H248.432C250.741 145.232 252.741 147.041 252.741 149.129V149.825C252.741 151.912 250.741 153.722 248.432 153.722H243.662C241.353 153.722 239.353 151.912 239.353 149.825V149.129C239.353 146.902 241.353 145.232 243.662 145.232Z" fill="#30AECF"/>
<path d="M246.74 153.722C246.893 153.861 250.895 153.722 251.818 153.304C252.741 152.886 253.972 151.773 253.972 151.773L254.588 153.304C254.588 153.304 252.279 154.974 249.202 154.696C246.124 154.417 246.74 153.722 246.74 153.722Z" fill="#C66040"/>
<path d="M250.125 136.742C249.971 136.881 248.74 138.969 249.202 139.804C249.663 140.778 251.048 140.5 251.972 139.804C252.895 139.108 254.126 137.021 253.049 136.464C252.279 135.907 250.125 136.742 250.125 136.742Z" fill="#C66040"/>
<path d="M252.741 139.526C253.081 139.526 253.357 139.276 253.357 138.969C253.357 138.662 253.081 138.412 252.741 138.412C252.401 138.412 252.126 138.662 252.126 138.969C252.126 139.276 252.401 139.526 252.741 139.526Z" fill="#C66040"/>
<path d="M247.817 137.438C247.817 137.438 248.74 136.881 249.356 137.438C249.971 137.995 250.433 137.856 251.51 137.856C252.587 137.856 252.587 137.577 253.357 137.856C254.126 138.134 254.742 137.438 254.588 136.464C254.434 135.49 253.203 134.098 251.818 134.515C250.433 134.933 250.125 136.742 250.125 136.742L247.817 137.438Z" fill="#3B4B75"/>
<path d="M171.205 166.973L148.27 163.598L147.899 165.659L170.835 169.034L171.205 166.973Z" fill="#212020"/>
<path d="M217.347 164.995L200.419 165.83C198.88 165.969 197.649 164.856 197.495 163.464C197.341 162.072 198.572 160.959 200.111 160.819L217.039 159.984C218.578 159.845 219.809 160.959 219.963 162.35C220.117 163.742 218.886 164.856 217.347 164.995Z" fill="#0C0618"/>
<path d="M152.713 156.366L151.174 156.227L96.3901 156.366V138.412H94.6973V154H92.6967V145.093H70.9984V154H48.9923V166.386H94.0817V167.361H96.3901V166.386H99.6217V168.057H115.472V166.386H119.166V168.057H151.174V166.386V164.438V161.794H200.419V160.263H227.196V155.531L152.713 156.366Z" fill="#444763"/>
<path d="M229.196 100H104.7C102.7 100 101.161 101.531 101.161 103.479V152.886C101.161 154.835 102.7 156.366 104.7 156.366H229.196C231.197 156.366 232.736 154.835 232.736 152.886V103.479C232.736 101.531 231.197 100 229.196 100ZM228.581 149.268C228.581 151.216 227.042 152.747 225.041 152.747H107.47C105.47 152.747 103.931 151.216 103.931 149.268V106.541C103.931 104.593 105.47 103.062 107.47 103.062H224.887C226.888 103.062 228.427 104.593 228.427 106.541V149.268H228.581Z" fill="#FFA703"/>
<path d="M225.041 103.062H107.47C105.47 103.062 103.931 104.593 103.931 106.541V149.268C103.931 151.216 105.47 152.747 107.47 152.747H224.887C226.888 152.747 228.427 151.216 228.427 149.268V106.541C228.581 104.593 227.042 103.062 225.041 103.062Z" fill="#FEB731"/>
<path d="M78.3851 177.799C84.5894 177.799 89.619 173.25 89.619 167.639C89.619 162.028 84.5894 157.479 78.3851 157.479C72.1808 157.479 67.1512 162.028 67.1512 167.639C67.1512 173.25 72.1808 177.799 78.3851 177.799Z" fill="#959AAF"/>
<path d="M78.3851 173.902C82.2096 173.902 85.3101 171.098 85.3101 167.639C85.3101 164.18 82.2096 161.376 78.3851 161.376C74.5605 161.376 71.4601 164.18 71.4601 167.639C71.4601 171.098 74.5605 173.902 78.3851 173.902Z" fill="#444763"/>
<path d="M78.3851 169.309C79.405 169.309 80.2317 168.561 80.2317 167.639C80.2317 166.717 79.405 165.969 78.3851 165.969C77.3652 165.969 76.5384 166.717 76.5384 167.639C76.5384 168.561 77.3652 169.309 78.3851 169.309Z" fill="#959AAF"/>
<path d="M80.8473 165.412C81.2722 165.412 81.6167 165.101 81.6167 164.716C81.6167 164.332 81.2722 164.021 80.8473 164.021C80.4223 164.021 80.0778 164.332 80.0778 164.716C80.0778 165.101 80.4223 165.412 80.8473 165.412Z" fill="#959AAF"/>
<path d="M80.0778 171.397C80.5028 171.397 80.8473 171.085 80.8473 170.701C80.8473 170.317 80.5028 170.005 80.0778 170.005C79.6529 170.005 79.3084 170.317 79.3084 170.701C79.3084 171.085 79.6529 171.397 80.0778 171.397Z" fill="#959AAF"/>
<path d="M81.7706 168.335C82.1956 168.335 82.5401 168.023 82.5401 167.639C82.5401 167.255 82.1956 166.943 81.7706 166.943C81.3457 166.943 81.0012 167.255 81.0012 167.639C81.0012 168.023 81.3457 168.335 81.7706 168.335Z" fill="#959AAF"/>
<path d="M76.2306 171.118C76.6556 171.118 77.0001 170.807 77.0001 170.423C77.0001 170.038 76.6556 169.727 76.2306 169.727C75.8057 169.727 75.4612 170.038 75.4612 170.423C75.4612 170.807 75.8057 171.118 76.2306 171.118Z" fill="#959AAF"/>
<path d="M74.5378 168.196C74.9628 168.196 75.3073 167.884 75.3073 167.5C75.3073 167.116 74.9628 166.804 74.5378 166.804C74.1129 166.804 73.7684 167.116 73.7684 167.5C73.7684 167.884 74.1129 168.196 74.5378 168.196Z" fill="#959AAF"/>
<path d="M76.6923 165.134C77.1172 165.134 77.4617 164.822 77.4617 164.438C77.4617 164.054 77.1172 163.742 76.6923 163.742C76.2673 163.742 75.9228 164.054 75.9228 164.438C75.9228 164.822 76.2673 165.134 76.6923 165.134Z" fill="#959AAF"/>
<path d="M181.029 177.799C187.233 177.799 192.263 173.25 192.263 167.639C192.263 162.028 187.233 157.479 181.029 157.479C174.825 157.479 169.795 162.028 169.795 167.639C169.795 173.25 174.825 177.799 181.029 177.799Z" fill="#282828"/>
<path d="M181.029 173.902C184.854 173.902 187.954 171.098 187.954 167.639C187.954 164.18 184.854 161.376 181.029 161.376C177.204 161.376 174.104 164.18 174.104 167.639C174.104 171.098 177.204 173.902 181.029 173.902Z" fill="#474747"/>
<path d="M181.029 169.866C182.389 169.866 183.491 168.869 183.491 167.639C183.491 166.409 182.389 165.412 181.029 165.412C179.669 165.412 178.567 166.409 178.567 167.639C178.567 168.869 179.669 169.866 181.029 169.866Z" fill="black"/>
<path d="M183.337 165.412C183.762 165.412 184.107 165.101 184.107 164.716C184.107 164.332 183.762 164.021 183.337 164.021C182.912 164.021 182.568 164.332 182.568 164.716C182.568 165.101 182.912 165.412 183.337 165.412Z" fill="#6E6E6E"/>
<path d="M182.722 171.397C183.147 171.397 183.491 171.085 183.491 170.701C183.491 170.317 183.147 170.005 182.722 170.005C182.297 170.005 181.952 170.317 181.952 170.701C181.952 171.085 182.297 171.397 182.722 171.397Z" fill="#6E6E6E"/>
<path d="M184.722 168.335C185.147 168.335 185.492 168.023 185.492 167.639C185.492 167.255 185.147 166.943 184.722 166.943C184.297 166.943 183.953 167.255 183.953 167.639C183.953 168.023 184.297 168.335 184.722 168.335Z" fill="#6E6E6E"/>
<path d="M178.875 171.118C179.299 171.118 179.644 170.807 179.644 170.423C179.644 170.038 179.299 169.727 178.875 169.727C178.45 169.727 178.105 170.038 178.105 170.423C178.105 170.807 178.45 171.118 178.875 171.118Z" fill="#6E6E6E"/>
<path d="M177.182 168.196C177.607 168.196 177.951 167.884 177.951 167.5C177.951 167.116 177.607 166.804 177.182 166.804C176.757 166.804 176.412 167.116 176.412 167.5C176.412 167.884 176.757 168.196 177.182 168.196Z" fill="#6E6E6E"/>
<path d="M179.336 165.134C179.761 165.134 180.106 164.822 180.106 164.438C180.106 164.054 179.761 163.742 179.336 163.742C178.911 163.742 178.567 164.054 178.567 164.438C178.567 164.822 178.911 165.134 179.336 165.134Z" fill="#6E6E6E"/>
<path d="M64.689 162.907H55.4556C54.5323 162.907 53.7628 163.603 53.7628 164.438C53.7628 165.273 52.9934 165.969 52.0701 165.969H48.6845C47.9151 165.969 47.2995 165.551 47.1456 164.856L46.0684 160.819C45.9145 160.541 46.0684 160.263 46.0684 159.984L47.2995 157.062C47.2995 156.923 47.4534 156.644 47.4534 156.505V146.763V146.624L48.069 140.917C48.2228 139.665 48.8384 138.134 49.6078 137.021L59.9184 121.155C60.8417 119.763 62.3806 118.649 64.2273 118.093L65.7662 117.675C65.9201 117.675 72.999 117.397 73.1528 117.397L86.0795 117.119C87.1567 117.119 89.7728 117.954 90.5423 118.51L93.9278 120.876C95.0051 121.572 95.6206 122.686 95.7745 123.938L96.3901 133.541C96.3901 134.098 96.3901 134.655 96.0823 135.211L91.9273 143.84C91.7734 143.979 91.7734 144.258 91.7734 144.397L91.6195 149.964C91.6195 151.634 90.2345 153.165 88.5417 153.582L85.3101 154.417C85.1562 154.417 85.0023 154.417 84.8484 154.417L80.8473 154.278C75.6151 154.139 70.6906 156.227 67.7667 160.124L66.2278 162.072C65.7662 162.629 65.3045 162.907 64.689 162.907Z" fill="#FF0742"/>
<path d="M61.3034 140.5L82.0784 135.211C82.6939 135.072 83.4634 134.655 83.9251 134.237C85.0023 133.402 85.6178 132.289 85.6178 131.036L86.5412 122.546C86.5412 121.572 85.9256 120.876 84.8484 120.598C83.3095 120.32 81.9245 120.041 80.3856 120.041H71.7678C70.0751 120.041 68.3823 120.459 66.8434 121.015L66.074 121.572C63.9195 122.546 62.2267 124.077 61.1495 125.887L56.9945 132.984C56.6867 133.68 56.379 134.376 56.0712 135.072L55.4556 137.438C54.994 138.969 56.2251 140.639 58.0717 140.778C59.3028 140.778 60.2262 140.639 61.3034 140.5Z" fill="url(#paint0_linear)"/>
<path d="M52.6856 147.876L52.8395 156.366H47.6073V149.964C47.6073 149.964 49.6078 147.737 51.1467 147.876C52.6856 148.015 52.6856 147.876 52.6856 147.876Z" fill="url(#paint1_linear)"/>
<path d="M53.3012 136.603C53.3012 136.603 50.5312 137.995 49.9156 138.412C49.3001 138.83 48.5306 139.387 48.5306 139.387C48.5306 139.387 48.5306 138.551 50.839 134.933C53.1473 131.314 60.534 119.624 61.3034 119.345C62.0728 119.067 63.6117 120.18 63.6117 120.18C63.6117 120.18 61.919 121.433 60.6878 123.103C59.4567 124.773 54.8401 132.567 54.3784 133.82C53.9167 135.211 53.3012 136.603 53.3012 136.603Z" fill="url(#paint2_linear)"/>
<path d="M66.8434 139.804C66.8434 139.804 66.5356 139.665 66.3817 139.526C64.9967 138.412 60.9956 135.629 61.3034 132.567H61.919C61.6112 135.35 65.3045 137.995 66.6895 139.108C67.1512 139.387 67.1512 139.526 67.3051 139.526L66.8434 139.804L67.1512 139.665L66.8434 139.804Z" fill="black"/>
<path d="M65.6123 139.526C65.6123 139.526 64.6889 141.057 65.3045 142.031C65.9201 143.144 66.2278 143.84 66.9973 143.701C67.7667 143.562 68.3823 142.17 68.6901 140.917C68.9978 139.665 68.0745 139.108 65.6123 139.526Z" fill="black"/>
<path d="M62.8423 132.984H64.0734L64.8428 131.871C64.9967 131.593 65.1506 131.175 65.1506 130.897L65.4584 124.356C65.4584 123.521 64.9967 122.686 64.0734 122.268C63.6117 122.129 63.1501 122.129 62.8423 122.407L61.3034 123.938C60.6878 124.495 60.3801 125.33 60.3801 126.165L60.6878 131.036C60.534 130.897 61.3034 133.402 62.8423 132.984Z" fill="black"/>
<path d="M85.9256 146.067C85.9256 146.067 85.9256 146.067 85.6178 146.067C85.3101 146.067 84.2328 146.067 81.7706 145.928C81.3089 145.928 81.0012 145.649 80.8473 145.371C80.6934 145.093 80.6934 144.675 80.8473 144.258C81.0012 143.84 81.4628 143.423 81.9245 143.283C82.3862 143.005 82.8478 142.866 83.4634 142.866H84.2328C85.464 142.866 86.3873 143.701 86.5412 144.814C86.2334 145.789 86.2334 145.928 85.9256 146.067Z" fill="black"/>
<path d="M53.1473 165.412C52.9934 160.959 52.6856 156.644 52.5317 152.191C52.3778 147.737 52.3778 143.283 52.8395 138.969L53.1473 137.299C53.3012 136.742 53.4551 136.185 53.609 135.629C54.0706 134.515 54.3784 133.541 54.994 132.567C55.9173 130.479 56.9945 128.531 58.2256 126.582C58.8412 125.608 59.4567 124.634 60.0723 123.799C60.6878 122.825 61.4573 121.99 62.3806 121.155C62.8423 120.737 63.304 120.32 63.7656 120.041C64.0734 119.902 64.3812 119.763 64.689 119.624C64.9967 119.485 65.3045 119.484 65.6123 119.345C66.8434 119.067 68.0745 118.928 69.3056 118.789C71.7678 118.51 74.2301 118.371 76.6923 118.232C79.1545 118.093 81.6167 118.093 84.079 118.093C84.6945 118.093 85.3101 118.093 85.9256 118.232C86.2334 118.232 86.5412 118.371 86.849 118.371C87.1567 118.51 87.4645 118.649 87.6184 118.928C87.9262 119.345 88.234 119.902 88.3878 120.459C88.5417 121.015 88.6956 121.572 88.6956 122.129C89.0034 124.356 88.8495 126.582 88.6956 128.809C88.5417 131.036 88.5417 133.263 88.5417 135.49C88.5417 137.716 88.5417 139.943 88.5417 142.17C88.5417 144.397 88.5417 146.624 88.0801 148.85C87.9262 149.407 87.7723 149.964 87.4645 150.381C87.1567 150.938 87.0028 151.356 86.6951 151.912C86.2334 152.886 85.6178 153.861 85.0023 154.835C85.6178 153.861 86.0795 152.886 86.6951 151.912C87.0028 151.356 87.1567 150.938 87.4645 150.381C87.7723 149.825 87.9262 149.407 88.0801 148.85C88.3878 146.624 88.3878 144.397 88.3878 142.17C88.3878 139.943 88.3878 137.716 88.3878 135.49C88.3878 133.263 88.234 131.036 88.3878 128.809C88.5417 126.582 88.6956 124.356 88.3878 122.268C88.3878 121.711 88.234 121.155 88.0801 120.598C87.9262 120.041 87.7723 119.485 87.4645 119.067C87.3106 118.789 87.0028 118.649 86.849 118.51C86.5412 118.371 86.2334 118.371 85.9256 118.371C85.3101 118.232 84.6945 118.232 84.079 118.232C81.6167 118.232 79.1545 118.232 76.6923 118.371C74.2301 118.51 71.7678 118.649 69.4595 118.928C68.2284 119.067 66.9973 119.206 65.9201 119.485C65.6123 119.485 65.3045 119.624 64.9967 119.763C64.689 119.763 64.3812 119.902 64.2273 120.041C63.7656 120.32 63.304 120.737 62.8423 121.015C62.0728 121.85 61.3034 122.686 60.534 123.66C59.9184 124.634 59.149 125.469 58.6873 126.443C57.4562 128.392 56.379 130.34 55.4556 132.428C54.994 133.402 54.5323 134.515 54.0706 135.49C53.9167 136.046 53.7628 136.603 53.609 137.021L53.3012 138.691C52.8395 143.144 52.8395 147.459 52.9934 151.912C52.8395 156.505 52.9934 160.959 53.1473 165.412Z" fill="#0C0618"/>
<path d="M52.8395 156.505C52.0701 156.366 51.3006 156.366 50.3773 156.366C49.9156 156.366 49.6078 156.366 49.1462 156.366C48.6845 156.366 48.3767 156.366 47.9151 156.505C48.2228 156.366 48.6845 156.366 49.1462 156.366C49.6078 156.366 49.9156 156.366 50.3773 156.366C51.1467 156.366 52.0701 156.366 52.8395 156.366V156.505Z" fill="black"/>
<path d="M52.6856 148.015C52.224 147.876 51.7623 147.876 51.3006 148.015C50.839 148.015 50.3773 148.155 49.9156 148.294C49.454 148.433 48.9923 148.711 48.6845 148.99C48.2228 149.268 47.9151 149.546 47.6073 149.964C47.9151 149.546 48.2228 149.268 48.5306 148.99C48.8384 148.711 49.3001 148.433 49.7617 148.294C50.2234 148.155 50.6851 148.015 51.1467 147.876C51.6084 147.737 52.0701 147.737 52.6856 147.876V148.015Z" fill="black"/>
<path d="M63.6117 157.897H58.8412V159.428H63.6117V157.897Z" fill="white"/>
<path d="M63.9195 165.969C64.5994 165.969 65.1506 165.47 65.1506 164.856C65.1506 164.241 64.5994 163.742 63.9195 163.742C63.2396 163.742 62.6884 164.241 62.6884 164.856C62.6884 165.47 63.2396 165.969 63.9195 165.969Z" fill="#CDE36C"/>
<path d="M175.489 147.598H176.258V149.546H175.489V155.531H176.566V156.227H175.489V158.871H173.027V149.546V147.598H175.489Z" fill="#F29811"/>
<path d="M174.873 158.314V168.752H176.105V170.283H173.027V157.062L174.873 158.314Z" fill="#4B4B4B"/>
<path d="M139.787 167.639C141.018 168.335 142.095 169.588 142.557 171.118C142.711 171.675 142.865 172.371 142.865 173.067C142.865 173.763 142.403 174.319 142.249 174.876L139.633 176.546C140.248 176.546 143.634 175.85 144.096 175.572C146.096 174.598 147.481 172.51 147.481 170.005C147.481 169.17 147.327 168.335 147.02 167.5C146.712 167.222 146.404 166.943 146.096 166.804C145.327 166.386 144.403 166.108 143.48 166.108C143.172 166.108 142.865 166.108 142.557 166.247C141.48 166.386 140.556 166.943 139.787 167.639Z" fill="#191919"/>
<path d="M140.864 177.381C141.326 177.66 141.941 177.799 142.403 177.938C142.711 177.938 143.018 178.077 143.326 178.077C144.25 178.077 145.173 177.799 145.942 177.381C147.635 176.407 148.866 174.319 148.866 172.093C148.866 170.283 148.097 168.613 146.866 167.5C147.173 168.196 147.327 169.031 147.327 170.005C147.327 172.51 145.942 174.598 143.942 175.572C143.48 175.85 142.865 175.99 142.403 175.99C142.249 175.99 142.095 175.99 141.941 175.99C141.633 176.546 141.326 176.964 140.864 177.381Z" fill="#191B30"/>
<path d="M143.326 178.077H148.558C151.636 178.077 154.098 175.433 154.098 172.093C154.098 168.752 151.636 166.108 148.558 166.108C147.789 166.108 147.02 166.247 146.404 166.526C146.558 166.804 146.712 167.082 146.866 167.5C148.097 168.613 148.866 170.283 148.866 172.093C148.866 174.319 147.635 176.407 145.942 177.381C145.173 177.799 144.25 178.077 143.326 178.077Z" fill="#373B68"/>
<path d="M166.717 178.912H172.411C173.488 178.912 174.72 178.634 175.643 178.077C176.258 177.66 176.874 177.242 177.336 176.685C177.643 176.407 177.797 176.129 178.105 175.711C178.413 175.294 178.567 174.876 178.721 174.459C179.182 173.484 179.336 172.51 179.336 171.397C179.336 169.727 178.875 168.196 178.105 166.943C177.643 166.247 177.028 165.691 176.412 165.134C175.797 164.577 175.027 164.299 174.104 164.02C173.642 163.881 173.027 163.742 172.411 163.742C171.334 163.742 170.411 164.02 169.487 164.438C171.796 165.691 173.488 168.196 173.488 171.258C173.488 174.18 171.95 176.685 169.795 177.938C169.641 177.938 169.641 178.077 169.487 178.077C168.718 178.634 167.795 178.912 166.717 178.912Z" fill="#373B68"/>
<path d="M171.488 165.134C171.334 165.134 164.563 165.412 164.563 165.412L162.716 171.814L160.716 172.789H143.942L137.478 166.665L130.553 167.778L128.245 170.562L127.63 169.727V158.314L138.556 159.428L152.406 163.046C152.406 163.046 155.33 160.124 155.791 159.845C156.253 159.706 161.793 159.428 161.947 159.428C162.101 159.428 171.796 158.871 172.103 158.732C172.411 158.593 179.028 165.412 179.028 165.412" fill="#191919"/>
<path d="M128.245 172.928C128.245 175.015 129.784 176.685 131.784 176.685C132.246 176.685 132.554 176.685 132.862 176.546C134.247 175.99 135.17 174.598 135.17 172.928C135.17 171.258 134.247 169.866 132.862 169.309C132.554 169.17 132.092 169.17 131.784 169.17C129.784 169.17 128.245 170.84 128.245 172.928ZM130.092 172.928C130.092 171.953 130.861 171.118 131.784 171.118C131.938 171.118 131.938 171.118 132.092 171.118C132.862 171.258 133.477 171.953 133.477 172.928C133.477 173.902 132.862 174.598 132.092 174.737C131.938 174.737 131.938 174.737 131.784 174.737C130.861 174.737 130.092 173.902 130.092 172.928Z" fill="#191B30"/>
<path d="M130.092 172.928C130.092 173.902 130.861 174.737 131.785 174.737C131.938 174.737 131.938 174.737 132.092 174.737C132.862 174.598 133.477 173.902 133.477 172.928C133.477 171.953 132.862 171.258 132.092 171.118C131.938 171.118 131.938 171.118 131.785 171.118C130.861 171.118 130.092 171.953 130.092 172.928Z" fill="#6B7296"/>
<path d="M181.337 178.077H187.338C191.186 178.077 194.263 174.737 194.263 170.562C194.263 166.386 191.186 163.046 187.338 163.046C187.031 163.046 186.569 163.046 186.261 163.185C186.877 164.299 187.338 165.551 187.338 166.943C187.954 168.057 188.262 169.309 188.262 170.562C188.262 173.484 186.723 176.129 184.415 177.242C183.337 177.799 182.414 178.077 181.337 178.077Z" fill="#373B68"/>
<path d="M164.563 171.397C164.563 172.371 165.178 173.206 165.948 173.624C166.256 173.763 166.41 173.763 166.717 173.763C167.948 173.763 168.872 172.649 168.872 171.397C168.872 170.144 167.948 169.031 166.717 169.031C166.41 169.031 166.102 169.031 165.948 169.17C165.178 169.587 164.563 170.423 164.563 171.397Z" fill="#6B7296"/>
<path d="M177.49 166.804C178.259 168.057 179.336 169.727 179.336 171.397C179.336 172.51 179.182 173.624 178.721 174.459C179.182 174.598 179.798 174.737 180.413 174.737C180.721 174.737 181.183 174.737 181.491 174.598C184.722 174.041 187.185 170.979 187.185 167.222C187.185 167.082 187.185 166.943 187.185 166.943C186.569 165.551 185.492 164.438 184.261 163.881C183.337 163.464 182.26 163.185 181.183 163.185C180.106 163.185 179.028 163.464 177.951 164.021L177.49 166.804Z" fill="#191919"/>
<path d="M177.336 176.825C177.643 176.964 177.797 177.103 178.105 177.242C179.028 177.799 180.106 178.077 181.337 178.077C182.414 178.077 183.491 177.799 184.415 177.381C186.723 176.129 188.262 173.624 188.262 170.701C188.262 169.448 187.954 168.196 187.338 167.082C187.338 167.222 187.338 167.361 187.338 167.361C187.338 171.118 184.876 174.18 181.644 174.737C181.337 174.737 180.875 174.876 180.567 174.876C179.952 174.876 179.49 174.737 178.874 174.598C178.721 175.015 178.413 175.433 178.259 175.85C177.951 176.129 177.643 176.407 177.336 176.825Z" fill="#191B30"/>
<path d="M159.946 171.397C159.946 174.319 161.485 176.825 163.64 178.077C164.563 178.634 165.64 178.912 166.871 178.912C167.948 178.912 168.872 178.634 169.795 178.216L170.103 178.077C172.257 176.825 173.796 174.319 173.796 171.397C173.796 168.335 172.103 165.83 169.795 164.577C168.872 164.16 167.948 163.881 166.871 163.881C163.024 163.881 159.946 167.222 159.946 171.397ZM162.562 171.397C162.562 168.892 164.409 166.804 166.717 166.804C166.871 166.804 166.871 166.804 167.025 166.804C169.18 166.943 170.872 169.031 170.872 171.397C170.872 173.763 169.18 175.85 167.025 175.99C166.871 175.99 166.871 175.99 166.717 175.99C164.409 175.99 162.562 173.902 162.562 171.397Z" fill="#6B7296"/>
<path d="M162.562 171.397C162.562 173.902 164.409 175.99 166.717 175.99C166.871 175.99 166.871 175.99 167.025 175.99C169.18 175.85 170.872 173.763 170.872 171.397C170.872 169.031 169.18 166.943 167.025 166.804C166.871 166.804 166.871 166.804 166.717 166.804C164.409 166.804 162.562 168.892 162.562 171.397ZM164.563 171.397C164.563 170.423 165.178 169.587 165.948 169.17C166.256 169.031 166.41 169.031 166.717 169.031C167.948 169.031 168.872 170.144 168.872 171.397C168.872 172.649 167.948 173.763 166.717 173.763C166.41 173.763 166.102 173.763 165.948 173.624C165.178 173.345 164.563 172.371 164.563 171.397Z" fill="#191B30"/>
<path d="M131.785 178.912H137.325C138.71 178.912 139.941 178.356 141.018 177.381C141.48 176.964 141.787 176.407 142.095 175.85C142.249 175.433 142.403 175.155 142.557 174.737C142.711 174.18 142.865 173.484 142.865 172.789C142.865 172.093 142.711 171.536 142.557 170.84C142.095 169.309 141.172 168.057 139.787 167.361C139.017 166.943 138.248 166.665 137.325 166.665C137.325 166.665 137.325 166.665 137.171 166.665C136.247 166.665 132.246 166.526 131.169 166.665C131.938 167.222 135.94 168.613 136.555 169.448C137.171 170.423 137.478 171.536 137.478 172.649C137.478 172.789 137.478 172.789 137.478 172.928C137.478 175.015 136.247 176.825 134.708 177.938C133.631 178.634 132.708 178.912 131.785 178.912Z" fill="#373B68"/>
<path d="M126.245 172.928C126.245 176.268 128.707 178.912 131.785 178.912C132.862 178.912 133.785 178.634 134.555 178.077C136.093 177.103 137.171 175.294 137.324 173.067C137.324 172.928 137.324 172.928 137.324 172.789C137.324 171.675 137.017 170.562 136.401 169.588C135.939 168.752 135.324 168.057 134.555 167.639C133.785 167.082 132.862 166.804 131.785 166.804C128.707 166.943 126.245 169.588 126.245 172.928ZM128.245 172.928C128.245 170.84 129.784 169.17 131.785 169.17C132.246 169.17 132.554 169.309 132.862 169.309C134.247 169.866 135.17 171.258 135.17 172.928C135.17 174.598 134.247 175.99 132.862 176.546C132.554 176.685 132.092 176.685 131.785 176.685C129.784 176.685 128.245 175.015 128.245 172.928Z" fill="#6B7296"/>
<path d="M151.482 144.536H146.866C146.866 144.536 145.327 143.423 145.327 147.319L145.481 154.696L158.253 156.227L166.563 156.505V159.706L169.333 160.263C169.333 160.263 172.565 159.567 173.181 160.124C173.796 160.68 174.412 159.706 174.412 159.706V144.397C174.412 144.397 168.564 143.979 164.409 146.624C159.946 149.407 167.795 149.268 167.795 149.268" fill="#191919"/>
<path d="M165.024 155.67C164.717 155.948 151.021 155.392 151.174 155.67C151.328 155.948 150.251 153.026 146.25 153.026H131.015C131.015 153.026 128.707 153.165 128.553 155.809V156.923L151.944 161.794L152.098 163.742H159.023V161.655L161.485 161.376L162.408 162.211L165.024 161.098L166.563 160.819L165.024 155.67Z" fill="#CE9815"/>
<path d="M152.713 162.768C152.713 162.907 152.867 171.397 145.019 172.928L137.94 172.51L135.016 166.386C135.016 166.386 134.862 165.273 133.17 165.412L129.168 165.551L127.014 168.196V159.289C127.014 159.289 127.014 158.036 128.091 158.314L152.713 162.768Z" fill="#444444"/>
<path d="M169.795 144.397C169.795 144.397 161.177 142.588 159.792 142.031C158.407 141.474 157.33 141.057 157.33 141.057V143.423C157.33 143.423 165.178 145.51 165.794 145.928C166.41 146.345 169.795 144.397 169.795 144.397Z" fill="#C66040"/>
<path d="M154.406 134.794C154.406 134.794 155.791 137.438 155.176 138.83C154.56 140.361 153.021 140.639 151.79 139.804C150.559 138.969 150.867 136.742 150.713 135.629C150.559 134.515 154.406 134.794 154.406 134.794Z" fill="#C66040"/>
<path d="M155.176 140.639C155.176 140.639 153.945 142.309 153.021 141.753C152.098 141.196 151.944 140.082 150.867 140.222C149.79 140.5 147.943 139.943 148.405 142.866C148.866 145.928 149.02 148.015 149.02 148.015C149.02 148.015 154.714 147.737 156.099 147.32C157.484 146.902 157.484 142.727 157.484 141.335C157.484 139.943 155.176 140.639 155.176 140.639Z" fill="#3A69FF"/>
<path d="M155.791 136.325C155.791 136.325 154.714 135.35 153.791 135.629C152.867 135.907 153.175 136.186 152.252 136.325C151.328 136.603 151.174 135.907 151.174 135.907C150.867 135.907 150.251 136.325 150.559 135.072C150.867 133.959 151.636 133.263 152.867 133.263C154.252 133.402 155.022 134.515 155.022 135.072C155.176 135.907 155.791 136.325 155.791 136.325Z" fill="#3B4B75"/>
<path d="M161.947 161.376C161.639 161.376 159.023 161.376 159.023 161.376V164.299L162.408 163.881L163.178 162.072L161.947 161.376Z" fill="#191919"/>
<path d="M166.102 160.819C165.948 160.541 163.793 154.557 163.793 154.557C163.793 154.557 163.332 153.443 159.331 153.443L156.561 150.66C156.561 150.66 164.871 150.938 166.102 151.634C167.333 152.33 168.256 160.402 168.256 160.402L166.102 160.819Z" fill="#25375B"/>
<path d="M158.715 160.263C159.023 159.984 158.715 154.974 157.638 154.278C156.561 153.582 152.406 153.861 152.406 153.861C152.406 153.861 149.79 152.608 149.328 151.077C148.866 149.685 148.866 147.737 148.866 147.737L155.945 146.484C155.945 146.484 157.638 149.546 157.638 150.381C157.792 151.216 158.1 150.938 158.1 150.938C158.1 150.938 161.177 153.582 161.331 155.67C161.485 157.758 161.331 160.263 161.331 160.263H158.715Z" fill="#3B4B75"/>
<path d="M156.561 147.737C156.561 147.737 156.253 149.268 155.33 149.964C154.406 150.66 153.483 150.381 153.637 150.66C153.791 150.938 158.1 150.66 159.331 151.216C160.562 151.773 157.638 150.381 157.638 150.381L156.561 147.737Z" fill="#25375B"/>
<path d="M163.024 146.206C162.716 146.206 157.022 146.067 154.714 144.258L153.021 143.701C153.021 143.701 152.713 144.675 152.56 145.51C152.252 146.206 158.869 148.572 163.178 147.876V146.206H163.024Z" fill="#C66040"/>
<path d="M150.559 137.716C150.729 137.716 150.867 137.467 150.867 137.16C150.867 136.852 150.729 136.603 150.559 136.603C150.389 136.603 150.251 136.852 150.251 137.16C150.251 137.467 150.389 137.716 150.559 137.716Z" fill="#C66040"/>
<path d="M169.179 163.464L171.334 162.768L160.869 137.438C159.331 133.68 156.407 130.479 152.713 128.392L151.482 130.201C154.714 132.01 157.33 134.794 158.715 138.134L169.179 163.464Z" fill="#3D3D3D"/>
<path d="M145.788 172.928H158.407V171.814C158.1 168.474 159.023 166.108 160.87 164.577C164.255 161.933 169.949 162.907 169.949 162.907C170.565 163.046 171.18 162.629 171.334 162.072C171.488 161.515 171.026 160.959 170.411 160.819C170.103 160.819 163.64 159.567 159.331 162.907C157.022 164.716 155.945 167.361 155.945 170.701H145.788C145.173 170.701 144.711 171.118 144.711 171.675C144.711 172.51 145.173 172.928 145.788 172.928Z" fill="#4C4C4C"/>
<path d="M217.906 172.304L221.907 172.304L221.907 168.268L217.906 168.268L217.906 172.304Z" fill="#865318"/>
<path d="M206.153 172.31L209.693 172.31L209.693 167.995L206.153 167.995L206.153 172.31Z" fill="#865318"/>
<path d="M186.249 172.304L190.712 172.304L190.712 168.268L186.249 168.268L186.249 172.304Z" fill="#865318"/>
<path d="M176.932 172.31L181.702 172.31L181.702 167.995L176.932 167.995L176.932 172.31Z" fill="#865318"/>
<path d="M218.769 168.438L221.846 168.438L221.846 167.603L218.769 167.603L218.769 168.438Z" fill="#F7836E"/>
<path d="M211.8 168.438L214.877 168.438L214.877 167.603L211.8 167.603L211.8 168.438Z" fill="#F7836E"/>
<path d="M204.739 168.438L207.817 168.438L207.817 167.603L204.739 167.603L204.739 168.438Z" fill="#F7836E"/>
<path d="M175.027 166.804V168.752V171.536V172.789H177.643H183.799H186.723H195.341H198.726V171.536V166.804H198.572H195.495H186.877H183.953H177.797H175.027ZM186.723 171.536V168.752H195.341V171.536H186.723ZM177.797 168.752H183.953V171.536H177.797V168.752Z" fill="#B06C21"/>
<path d="M198.88 168.892V171.814H198.418V172.649H198.88H201.496H202.573H221.194H224.58V171.814V168.892V166.804H221.194H213.807H209.806H202.727H201.65H199.034H198.572V167.639H199.034V168.892H198.88ZM213.807 168.892H221.194V171.536H213.807V168.892ZM202.573 168.892H209.652V171.536H202.573V168.892Z" fill="#CE7F27"/>
<path d="M145.173 153.026C146.25 153.026 147.481 152.886 148.558 153.304C150.251 154 151.79 154.835 152.56 157.062C153.483 159.289 152.867 163.742 152.867 163.742L129.015 156.644C128.861 156.644 128.707 156.366 128.707 156.227V155.809C128.861 155.113 129.015 154.139 129.63 153.722C130.4 153.165 131.477 153.026 132.554 153.165L145.173 153.026Z" fill="#3A69FF"/>
<path d="M171.534 173.005L176.458 173.005L176.458 126.938L171.534 126.938L171.534 173.005Z" fill="#191919"/>
<path d="M186.346 137.513L192.194 137.513L192.194 124.569L186.346 124.569L186.346 137.513Z" fill="#191919"/>
<path d="M167.795 126.861H186.415V124.495H167.795C167.487 124.495 167.333 124.634 167.333 124.912V126.443C167.333 126.722 167.487 126.861 167.795 126.861Z" fill="#191919"/>
<path d="M137.325 156.923C138.094 156.923 138.71 156.366 138.71 155.67V132.984C138.71 132.706 138.71 132.428 138.863 132.149C139.171 131.454 140.095 130.897 140.864 130.897H165.794C167.641 130.897 169.333 131.175 170.872 131.871L171.95 132.289C172.719 132.567 173.488 132.289 173.796 131.593C174.104 130.897 173.796 130.201 173.027 129.923L171.95 129.505C169.949 128.809 167.948 128.392 165.794 128.392H141.018C139.017 128.392 137.171 129.505 136.401 131.175C136.093 131.732 135.94 132.428 135.94 133.124V155.67C135.94 156.227 136.555 156.923 137.325 156.923Z" fill="#3D3D3D"/>
<path d="M181.183 167.082H202.573V136.603H181.183C177.643 136.603 174.719 139.247 174.719 142.448V161.376C174.873 164.438 177.643 167.082 181.183 167.082Z" fill="#3A69FF"/>
<path d="M201.65 167.082H217.039C220.578 167.082 223.502 164.438 223.502 161.237V142.448C223.502 139.247 220.578 136.603 217.039 136.603H201.65V167.082Z" fill="#ADBDEF"/>
<path d="M128.245 158.732V156.366L152.867 161.098L152.713 163.742L128.245 158.732Z" fill="#ADBDEF"/>
<defs>
<linearGradient id="paint0_linear" x1="66.0499" y1="114.04" x2="81.2065" y2="175.286" gradientUnits="userSpaceOnUse">
<stop stop-color="white"/>
<stop offset="1" stop-color="#01A0C6"/>
</linearGradient>
<linearGradient id="paint1_linear" x1="55.2705" y1="149.868" x2="31.4553" y2="167.025" gradientUnits="userSpaceOnUse">
<stop stop-color="white"/>
<stop offset="1" stop-color="#01A0C6"/>
</linearGradient>
<linearGradient id="paint2_linear" x1="57.7146" y1="128.516" x2="32.1571" y2="138.282" gradientUnits="userSpaceOnUse">
<stop stop-color="white"/>
<stop offset="0.4176" stop-color="#95D7E7"/>
<stop offset="1" stop-color="#01A0C6"/>
</linearGradient>
</defs>
</svg>
